<svg xmlns="http://www.w3.org/2000/svg" version="1.1" xmlns:xlink="http://www.w3.org/1999/xlink" xmlns:svgjs="http://svgjs.dev/svgjs" width="1000" height="1000" viewBox="0 0 1000 1000"><rect width="1000" height="1000" fill="#000000"></rect><g transform="matrix(0.7,0,0,0.7,150.0000000000001,106.25)"><svg viewBox="0 0 320 360" data-background-color="#111111" preserveAspectRatio="xMidYMid meet" height="1125" width="1000" xmlns="http://www.w3.org/2000/svg" xmlns:xlink="http://www.w3.org/1999/xlink"><g id="tight-bounds" transform="matrix(1,0,0,1,-5.684341886080802e-14,0)"><svg viewBox="0 0 320 360" height="360" width="320"><rect width="320" height="360" fill="#ffffff" mask="url(&quot;#eb86821c-7e0f-4712-8e14-4144674e3292&quot;)" data-fill-palette-color="tertiary"></rect><rect width="320" height="360" fill="#ffffff" mask="url(&quot;#e2f39d05-b3ce-4957-8964-bf5f220233ba&quot;)" data-fill-palette-color="secondary"></rect><rect width="320" height="360" fill="#ffffff" mask="url(&quot;#fa43e9c0-c52e-4f0b-b573-7e42f99765b9&quot;)" data-fill-palette-color="primary"></rect><g><svg></svg></g><g><svg viewBox="0 0 320 360" height="360" width="320"><g><path xmlns="http://www.w3.org/2000/svg" d="M85.508 32.884c0-1.117 0.558-2.233 1.675-2.233 1.117 0 2.233 0.558 2.234 2.233 0.558 0 1.675 0 2.233-0.558 2.233 0 4.467-0.558 6.141 0 1.675 0.558 2.792 0.558 4.467 1.117 1.675 0.558 2.792 0 3.908-0.559 2.233-0.558 3.908-1.675 6.141-2.233 1.117-0.558 1.675-0.558 2.792-0.558 1.117-0.558 2.233-0.558 3.908-1.117 2.792-0.558 5.583-1.117 7.817-2.233 2.233-1.117 4.467-1.117 6.699-1.675 1.117 0 1.675-0.558 2.792-1.117 0.558 0 0.558-0.558 1.116-1.116 1.117-0.558 1.675-1.117 2.792-0.559 0.558 0.558 1.675 0.558 2.233 0h0.559c3.35 0 6.7-0.558 10.608 0 0.558 0 1.117 0 1.116 0 1.675-1.117 3.908-1.117 6.142-1.116 0.558 0 1.675 0 2.233 0h0.558c2.233 0 4.467 0 6.142 0.558 1.675 0 2.792 0.558 4.466 1.117 1.675 0 2.792 0 4.467 0.558 1.117 0 2.233 0 3.35 0 0.558 0 1.117 0 1.116 0 2.233 0.558 4.467 0.558 6.7 0.558 1.675 0.558 3.35 1.117 5.583 1.117 0.558 0 1.117 0 1.675 0 0.558 0 1.117 0.558 1.675 0.558l0.558 0.559c2.233 0 3.908 1.117 6.142 1.116 0.558 0 1.675 0 2.233 0.559 1.675 1.117 3.908 1.675 6.141 1.675 1.117 0 1.675 0.558 2.234 1.116 1.675 0.558 2.792 1.117 4.466 1.675 1.117 0.558 2.233 0 3.35 0.558 1.675 0.558 3.908 1.117 5.583 2.792 1.117 1.117 2.233 1.117 3.908 2.233 0.558 0 1.117 0.558 1.675 1.117 1.675 1.117 3.35 2.233 5.025 2.791 0.558 0 1.117 0.558 1.675 0.559 1.675 1.117 3.35 2.792 5.583 3.908 1.117 0.558 1.675 1.117 2.792 1.675h0.558c1.675 1.675 3.908 2.792 5.583 4.466 1.675 1.675 2.792 2.792 5.025 3.909 0 0 0 0 0 0.558 0.558 1.117 1.117 1.675 2.233 2.233 1.117 0.558 1.675 1.117 2.234 1.675 1.675 1.117 3.35 2.233 4.466 3.35 0.558 0.558 1.117 1.117 2.233 2.233 0.558 0.558 1.117 1.117 1.675 1.117 2.233 0.558 3.35 2.233 5.025 3.908 1.117 1.117 2.792 2.792 3.908 3.908 0.558 0.558 1.117 1.675 1.675 2.792 1.117 3.35 2.792 6.7 4.467 9.491 0 0 0 0.558 0.558 1.117v0.558c1.117 1.117 1.675 2.792 2.792 3.908 0.558 0.558 0.558 1.117 1.116 1.675 1.117 1.675 1.675 3.908 2.792 5.583 1.675 2.792 2.792 5.583 3.908 8.375v0.558c0.558 1.117 1.117 2.233 1.675 3.908 0 1.117 1.117 2.233 1.675 3.909 0.558 2.792 2.233 5.583 2.791 8.933 0 0.558 0.558 1.117 0.559 2.233 0.558 1.675 1.117 3.35 1.675 5.025 0 0.558 0.558 1.117 1.116 1.675 1.117 1.117 1.117 2.233 1.117 3.35-0.558 2.233 0 4.467 0.558 6.699 0 0.558 0 1.117 0 2.234 0.558 2.233 1.117 5.025 1.117 7.258 0 0.558 0 1.675 0 2.233 0 1.675 0.558 3.35 1.675 5.025 0 0.558 0.558 0.558 0.558 0.558 0.558 0.558 1.117 1.675 1.675 2.233 0.558 0.558 0.558 0.558 1.117 1.117 1.117 1.117 1.675 2.233 1.675 3.908 0 0.558-0.558 1.675-0.559 2.233 0 0.558 0 1.675 0.559 2.234 0.558 0.558 0.558 1.117 0.558 1.675 0 0.558-0.558 1.117-1.117 1.116v0c-0.558 1.675-2.792 2.233-3.35 3.908-0.558 2.233-1.117 4.467-1.674 6.7-0.558 1.675-0.558 2.792-0.559 4.467 0 1.675-0.558 2.792-0.558 4.466-0.558 2.233-1.117 4.467-1.675 6.7 0 1.117-0.558 2.233-0.558 3.35 0.558 0.558 1.117 1.117 1.675 1.116 1.117 1.117 2.233 2.233 3.349 3.35 0.558 0.558 0.558 1.117 0 1.117-0.558 0.558-1.117 0.558-1.674 0.558-0.558-0.558-1.675-1.117-2.234-1.116-0.558-0.558-1.675-1.117-2.791-0.559 0 1.117-0.558 2.233-0.559 2.792-0.558 1.117-1.117 2.792-1.116 3.908-0.558 2.233-1.675 3.908-2.233 6.142-1.117 2.792-2.233 5.025-3.35 7.258-0.558 1.117-1.117 2.233-1.675 3.35v0c0 1.675-1.675 3.35-2.234 5.024-1.117 2.233-2.233 4.467-3.349 7.258-0.558 1.117-1.117 2.233-1.675 2.792-1.117 2.792-2.233 5.025-3.909 7.258-1.117 1.675-2.233 2.792-3.349 3.35-1.117 1.117-2.233 2.233-3.35 3.35-0.558 0.558-1.117 1.117-1.675 1.675-0.558 0.558-0.558 0.558-1.117 1.116-1.117 1.675-2.792 2.792-3.908 4.467-1.117 1.117-1.675 2.233-3.35 3.35-1.117 1.117-2.233 2.792-3.908 3.35-0.558 0.558-1.117 1.675-1.675 2.233-0.558 0.558-1.117 1.675-1.675 2.233 0 1.117 0.558 2.233 0.558 2.792 0 1.675-1.675 2.233-2.791 1.116-1.675-1.117-1.675-1.117-3.35 0-1.675 1.117-3.35 2.792-5.583 3.35-0.558 0-0.558 0.558-1.117 0.559-1.117 0.558-1.675 1.675-2.792 2.233-1.117 1.117-2.792 1.675-3.908 2.791-0.558 0.558-1.117 0.558-1.675 1.117-1.675 1.117-3.35 1.675-5.024 3.35-0.558 0.558-1.117 0.558-1.675 1.117 0 0.558 0 0.558 0 1.116 0 1.117-1.117 2.233-2.792 1.675-1.675-0.558-2.792 0-4.466 0-1.675 0.558-3.35 1.675-5.025 2.233-0.558 0-1.117 0.558-1.675 1.117-1.675 1.117-3.35 1.675-5.025 2.233-1.117 0-2.233 1.117-3.35 1.117-0.558 0-1.117 0.558-1.675 0.558h-0.558c-2.233 1.675-4.467 2.792-6.7 4.467-0.558 0-0.558 0.558-1.117 1.116-0.558 1.117-1.117 1.675-2.233 1.675-2.792 0-3.908 2.233-3.35 4.467 0 0.558 0.558 1.117 0.559 1.675 0.558 1.117 0 2.233-0.559 2.791-0.558 0.558-2.233 0.558-2.791-0.558-1.117-1.117-1.675-2.233-2.234-3.908-0.558-1.117-1.675-2.233-2.791-2.792-1.117-0.558-2.233-0.558-3.35 0-0.558 0-0.558 0.558-1.117 0.558-1.117 1.117-2.792 1.675-4.466 1.117-0.558 0-1.675 0-1.675 0.558-0.558 0.558-0.558 1.675 0 2.234 1.117 1.117 0.558 2.233 0.558 3.908 0 2.233-1.675 3.35-3.908 2.233-0.558-0.558-1.117-0.558-1.675-1.117-0.558 0-0.558-0.558-0.558-1.116-0.558-0.558-0.558-1.675-1.117-2.792-1.117 0.558-2.233 0.558-3.35 1.117-0.558 0-1.117 0.558-1.675 0.558-1.675 0-2.233 0-2.791-1.675-0.558-1.675-1.675-1.675-2.792-2.233-2.233-0.558-5.025-0.558-7.258-1.675h-0.558c-2.233-1.675-4.467-1.675-7.258-1.675-1.675 0-3.35 0.558-5.025 0.558-1.675 0-2.792 0.558-3.908 1.675-0.558 0.558-1.117 1.117-1.675 1.117-0.558-0.558-0.558-1.117-1.117-1.675v-0.558c0-0.558-0.558-1.117-1.116-0.559-1.117 0.558-2.233-0.558-3.35-1.116-0.558-0.558-1.675-1.675-1.675-2.792-0.558-0.558-1.117-1.117-1.675-1.116-1.117 0-2.792-0.558-3.908-0.559-0.558 0-1.117 0-1.117-0.558-0.558-0.558-1.117-0.558-2.233-0.558-0.558 0-0.558-0.558-1.117-0.559 1.117 1.117 1.675 2.233 2.233 3.35 0 0.558 0.558 0.558 0.559 1.117 0.558 1.117 0 1.675-1.675 1.675-1.117 0-1.117 0-1.675 0.558 0 1.117 0 1.675 0 2.792 0 0.558 0 1.117-1.117 1.675 0 0-0.558 0-0.558 0.558-0.558 0.558-0.558 1.117 0 1.675 1.675 1.117 2.792 1.675 4.466 2.233 1.675 0 1.675 1.117 2.234 2.233 0.558 1.117 0 1.675-0.559 2.792-1.117 1.117-2.233 2.233-3.35 3.35-1.675 0.558-2.792 2.233-4.466 2.233-1.117 0-2.233-0.558-2.792-1.675-0.558-2.792-0.558-5.025 0.559-7.816 0-0.558 0.558-1.117 0-1.675-5.025 0-5.025-1.117-5.025-1.675 0-1.117 0.558-1.675 0.558-2.792 0.558-1.117 0-1.675-1.675-2.233-0.558 0-1.117 0-1.675 0-0.558 0-0.558-0.558-1.675-0.558 1.117-0.558 1.675-0.558 2.792-1.117-0.558-2.233-1.117-3.908-2.792-5.025-0.558-0.558-1.117-1.117-1.116-2.233 0-1.675-1.117-2.792-1.675-3.908-1.117-1.675-3.35-2.233-5.025-2.233-1.675-0.558-2.792-0.558-4.467-1.117-1.675-0.558-3.35-2.233-5.024-2.792-0.558-0.558-1.117-1.117-2.234-1.674-2.233-1.117-3.908-2.792-5.583-4.467-1.117-0.558-1.675-1.675-2.791-2.233-1.117-1.117-1.675-2.233-2.792-2.792-1.117-1.117-2.233-2.233-3.908-3.35-1.675-1.117-2.792-2.792-4.467-4.466-1.117-1.675-2.792-2.792-4.466-3.908-0.558 0-1.117 0-1.675 0-0.558 0-1.117 0.558-1.675 0.558-1.675 0.558-2.792 1.675-4.467 2.233 0.558-0.558 0.558-0.558 0-1.675-0.558-0.558-1.117-1.117-1.674-1.116-1.117 0-2.233 0-3.35 0-2.233 0-4.467 0.558-6.7 0.558-1.675 0-3.908 0.558-5.583 1.117 0.558 1.117 0.558 1.675 1.116 2.791-1.117 0.558-2.233 0.558-3.35 0.558-0.558 0-1.675 0.558-2.233 1.117-0.558 0-0.558 0.558-1.116 0-1.117-0.558-2.233 0-3.35 0.558h-0.559c0 0 0-0.558 0.559-0.558 0.558-0.558 1.117-1.117 1.675-1.675 0.558-0.558 1.117-0.558 2.233-1.117-0.558-0.558-0.558-1.117-0.558-1.116-0.558-0.558-1.117-0.558-1.675 0-0.558 0.558-1.117 1.117-1.675 1.675-0.558 0.558-1.117 0.558-1.675 0-0.558-0.558-0.558-1.117 0-1.675 0-0.558 0.558-1.117 1.116-1.675 0.558-0.558 0.558-1.117 1.117-1.675-1.117-1.117-1.675-2.233-2.792-2.792-1.675-1.117-3.35-2.792-4.466-4.466-1.117-2.233-2.792-3.908-5.025-5.025-0.558-0.558-1.117-1.117-1.675-1.675-0.558-0.558-0.558-0.558-1.116-1.117-1.675 0.558-2.792 1.675-4.467 2.234-0.558 0-0.558 0.558-1.117 1.116-0.558 1.117-1.675 1.117-2.791 1.117-0.558 0-1.117-0.558-0.558-1.117 0.558-1.117 1.117-2.233 2.791-1.675 0 0 0.558 0 0.558-0.558 1.117-1.117 2.233-2.792 3.909-3.908-0.558-1.675-1.675-2.792-2.234-3.908-0.558-0.558-0.558-1.117-0.558-2.234 0-0.558 0-0.558-0.558-1.116 0 0-0.558 0-1.117 0.558-0.558 0.558-1.675 1.117-2.791 0 0-0.558 0-1.117 0.558-1.675l0.558-0.558c1.675-0.558 1.675-2.233 1.675-3.908v-0.559c-0.558-1.117-0.558-1.675 0.558-2.791 1.675-1.117 3.35-3.35 3.909-5.025 0.558-1.117 1.675-1.675 2.791-2.792 1.117-1.117 2.233-2.233 2.792-3.908h0.558c2.233 0.558 2.792-1.117 3.908-2.791 0-0.558 0-1.117 0.559-1.117 1.117-1.117 1.117-2.233 0.558-3.908 0-0.558-0.558-1.675-0.558-2.233 0-0.558 0-0.558-0.559-1.117-1.675-1.117-1.675-2.233 0-3.35 1.117-0.558 1.117-1.675 1.675-2.233 0.558-1.117 0.558-2.233 0.559-3.908-0.558-1.675-0.558-3.908-1.117-5.583-0.558-2.233-1.117-5.025-1.675-7.259 0-0.558 0-0.558 0-1.116 0-1.675 0-2.792-0.558-4.467-0.558-0.558-0.558-1.675-0.559-2.233-0.558-1.675-1.117-2.792-2.791-3.35-1.675-1.117-3.908-1.675-5.583-2.791-0.558-0.558-1.117 0-1.675 0.558-0.558 1.117-1.675 2.233-2.234 3.35-0.558 0.558-1.117 1.675-1.675 2.791-1.117 1.117-3.35 2.233-5.024 0.559-0.558-1.117-1.117-1.675 0-2.792 1.117-1.675 2.233-3.35 3.908-4.466 0.558-0.558 1.117-1.675 1.675-2.234 0.558-1.117 0.558-2.233 0.558-3.35-0.558-2.233-1.117-4.467-1.117-7.258 0-2.792 0-5.025 0.559-7.816 0.558-1.117 0.558-2.792 1.116-3.908 0-0.558 0.558-1.675 1.117-2.233 1.117-1.117 2.233-2.233 2.792-3.909 0.558-1.675 1.675-3.35 1.675-5.024 0-0.558 0.558-1.117 0.558-1.675 0-0.558 0.558-1.675 0.558-2.234-0.558-1.675 0-2.792 0.558-3.908 0.558-1.117 1.117-2.792 1.675-3.908 1.117-2.233 1.117-5.025 3.35-7.258 0.558-1.117 1.117-2.233 1.675-3.35 0.558-2.233 1.675-3.908 2.792-5.583 0.558-0.558 0.558-0.558 0.558-1.117 0.558-1.675 1.675-3.35 2.792-5.025 1.117-1.675 1.117-3.35 1.675-5.024 0-0.558 0-1.117 0.558-1.675 1.675-1.675 1.117-3.908 0.558-6.142-1.117-2.792-1.675-5.583-1.116-8.374 0-0.558 0-1.117 0.558-1.117 0.558-1.117 0.558-1.675 1.117-2.792v-0.558c1.117-1.117 2.233-2.792 3.908-3.35 2.233-1.117 4.467-1.675 7.258-2.233 2.233 0 4.467-1.117 6.141-3.35 0-0.558 0.558-0.558 1.117-1.117l0.558-0.558c0.558-1.117 1.117-1.675 1.675-2.233 1.117-1.117 2.233-2.792 3.35-3.908 1.117-1.117 2.233-2.792 3.908-4.467l0.559-0.558c1.117-1.117 2.233-2.233 3.349-2.792 1.117-1.117 2.233-2.233 3.35-3.35 1.117-1.117 1.675-2.233 2.792-3.35 1.117-0.558 2.233-1.675 3.35-2.791 1.117-1.117 2.233-2.233 2.791-2.792 1.117-1.117 2.792-2.233 3.909-2.791 1.117-0.558 2.233-1.117 2.791-2.792 0.558-1.675 1.117-2.792 1.675-4.466 0-1.117 0.558-2.233 1.117-3.35 0.558 0 1.117 0 2.233-0.558-0.558-0.558-1.117-0.558-1.117-1.117 0-0.558 0.558-1.117 0.559-1.117 0-0.558 0.558-1.117 0.558-1.675 0 0 0.558 0 0.558-0.558 0 0 0.558 0 0.559-0.558-1.117 0.558-1.675 0-2.234-0.559 0.558 0.558 1.117 0.558 2.234 1.117 0 0 0.558 0 0.558-0.558 0-0.558 0-1.117 0-1.117 0 0-0.558 0-1.117 0-0.558 0-1.117 0.558-1.675 0.558zM182.097 295.292c0-0.558-0.558-0.558-0.559-1.117-0.558-1.117 0-1.675 0.559-2.233 0.558-0.558 1.117-0.558 2.233-0.558 1.117 0.558 1.675 1.117 1.675 2.233 0 0.558 0 1.675 0 2.233 0.558 2.233 0.558 2.233 2.791 2.233 1.117 0 2.233 0 3.35 0 2.233-0.558 4.467-1.675 6.7-2.233 2.233-0.558 4.467-1.117 6.7-1.675 0.558 0 1.117 0 2.233 0 2.233 0.558 3.908 0 5.583-1.117 0.558-0.558 1.675-0.558 2.233-1.116 1.117-0.558 2.233-0.558 3.35-1.117 2.792-1.675 5.583-2.792 7.817-4.466 1.675-1.117 3.35-2.233 5.024-3.35 1.675-1.117 3.35-2.233 5.025-3.35 1.117-0.558 2.792-1.675 3.908-2.792 2.233-1.675 3.908-3.35 6.142-4.466 1.117-0.558 1.675-1.117 2.233-1.675 1.117-0.558 1.675-1.675 2.792-2.233 0.558-0.558 1.117-1.117 2.233-1.675 0.558-0.558 0.558-0.558 0.558-1.117 1.675-1.117 3.35-3.35 4.467-5.025 1.117-1.117 2.233-2.233 3.35-3.908 1.675-1.675 2.792-3.908 4.466-6.141 1.117-1.117 2.233-2.792 2.792-3.909 1.117-2.233 2.233-4.467 3.908-6.141v-0.558c1.117-2.233 2.233-4.467 3.35-6.7 1.675-2.792 2.792-6.141 4.466-8.933 0.558-1.117 1.117-2.233 1.117-3.35 1.117-2.233 1.675-4.467 2.233-6.7 0-0.558 0-0.558 0.559-1.116 1.675-3.35 2.792-6.7 3.349-10.608 0.558-2.233 1.117-4.467 1.675-6.7 1.117-3.35 1.117-6.141 1.675-9.491 0.558-2.233 0.558-5.025 0.559-7.258 0.558-3.35 0.558-7.258 0-10.608 0-2.792-0.558-6.141-0.559-8.933 0-2.792-0.558-5.025-1.116-7.817-0.558-2.792-1.117-5.025-1.675-7.816-1.117-2.233-1.675-4.467-2.234-7.258-0.558-2.233-1.675-3.908-1.674-6.142 0-1.675-0.558-3.35-2.234-3.908-1.675-0.558-2.792-1.117-4.466-2.233-3.35-2.233-5.025-5.025-4.467-8.375 0-1.675 0.558-3.908 1.117-5.583 0.558-1.675 1.117-3.35 0-4.467-0.558-1.675-1.675-2.792-2.233-3.908-1.117-1.675-1.675-2.792-2.792-3.908-1.117-2.233-2.233-4.467-3.908-6.141-2.233-2.792-3.908-5.583-6.7-7.817l-0.558-0.558c-1.675-2.233-3.35-4.467-5.583-6.142-1.117-1.117-2.233-2.233-3.35-2.791-0.558-0.558-1.117-1.117-2.233-1.675-1.675-1.117-3.35-1.675-4.467-2.792-1.675-1.675-3.908-2.792-5.583-3.908 0 0-0.558 0-0.558-0.558-2.233-1.117-3.908-1.675-6.142-2.792-2.233-1.117-4.467-1.675-6.7-1.675-0.558 0-0.558 0-1.116 0-0.558-0.558-1.675-0.558-2.233-0.558-0.558 0-0.558 0-1.117 0-1.117-0.558-2.792 0-3.908 0-2.233 0.558-4.467 0.558-6.7-0.558-2.792-1.117-5.025-2.233-7.258-3.35-1.675-1.117-2.792-2.233-4.467-3.35-3.35-2.792-6.7-6.141-10.608-8.933 0.558-2.792-0.558-3.35-2.791-3.35-1.117 0-2.233 0.558-3.35 1.117-0.558 0.558-0.558 0.558-1.117 1.116-1.675 1.117-2.792 2.792-4.466 3.909-2.792 1.675-3.908 1.117-6.142 0-0.558-0.558-1.117-1.117-1.675-1.675-1.117-1.117-2.233-2.792-2.791-3.909-1.117-2.233-3.35-2.233-5.583-2.233-1.117 0-2.792 0.558-3.908 0.558-2.233 0-4.467 1.117-5.584 2.792-1.117 1.675-2.233 3.35-3.908 5.025-0.558 0.558-1.675 1.117-2.233 2.233-1.117 1.117-2.233 1.117-3.35 0-0.558-0.558-1.117-0.558-1.675-1.117-0.558 0.558-1.117 1.117-1.117 1.675-0.558 1.117-1.117 2.233-1.674 3.909-0.558 1.675-1.675 3.35-2.792 4.466-0.558 0.558-0.558 0.558-1.117 1.117-0.558 1.117-2.233 1.675-3.35 1.675-1.117 1.117-2.233 2.792-2.791 3.908-0.558 1.117-1.117 2.233-1.675 3.908-0.558 0.558-0.558 1.675-1.117 2.233-0.558 1.117-0.558 1.675-0.558 2.792 0.558 1.675-0.558 2.233-2.233 2.791-1.117 0-1.117 0-1.675 1.117 0 1.675 0.558 2.792 1.116 4.467 0.558 0.558 1.117 1.675 1.117 2.233 0 1.117 0.558 1.675 1.675 2.233 0.558 0.558 1.117 1.117 1.675 1.117 0.558 0 0.558 0.558 1.117 0.558 0.558 0.558 1.117 0 1.116-0.558 0.558-1.675 1.117-3.35 1.117-5.025 0.558-2.233 0.558-3.908 1.116-6.142 0.558-1.117 1.117-1.675 1.675-2.233 0 0 0.558 0 1.117 0v0.559c-0.558 2.792-1.675 6.141-2.233 8.933-0.558 1.117-0.558 2.233-1.117 3.349 0 0.558-0.558 1.117-1.116 1.117-1.117 0.558-2.233 1.117-3.35 1.117-0.558 0-1.117 0-1.675 0-1.117-0.558-2.233-1.675-3.35-2.234-0.558-0.558-1.117-1.117-1.675-1.674-0.558-1.117-1.117-2.233-1.675-3.35-0.558-1.117-1.117-1.675-2.233-2.234-0.558-0.558-1.117-0.558-1.675-1.116-1.117-1.117-2.233-1.675-3.908-1.675-0.558 0-1.675 0-2.234 0-0.558 0-1.675 0.558-2.233 1.116-1.117 0.558-1.675 0.558-2.791 0-2.792-1.117-5.583-0.558-8.375 0.559-1.117 0.558-2.233 1.117-3.35 1.116-2.792 0-5.025 0-7.816 0-2.792 0-5.025-0.558-7.817-1.116-1.117 0-2.233 0-3.35 0-2.233 0.558-2.792 2.233-2.233 4.466 0.558 2.233 1.117 5.025 1.117 7.258 0 1.675 0 3.35 0 5.025 0 1.117 0 1.675 0 2.792 0 1.675-0.558 3.35-0.559 5.025-0.558 3.35-2.233 6.141-4.466 8.374-1.675 1.675-3.908 3.35-6.142 3.908-1.117 0.558-2.233 1.117-3.908 1.675-2.792 1.117-5.025 3.35-6.7 6.142-0.558 1.117-1.117 2.233-1.674 3.35-1.117 1.675-1.675 2.792-2.792 4.466-0.558 1.117-1.675 2.233-2.233 3.35-0.558 1.117-1.675 1.675-1.675 2.792-1.117 2.233-1.675 4.467-2.792 6.699-0.558 1.117-0.558 2.792-1.116 3.909-1.117 2.233-1.117 4.467-1.117 7.258 0 0.558 0 1.117 0 2.233 0 2.792-0.558 6.141-0.558 8.933 0 2.792 0 5.583 0.558 8.375 0 1.117 0 2.792 0 3.908 0 2.233 0.558 5.025 0.558 7.258 0 2.233 0 5.025 1.117 7.258v0.558c0.558 2.233 0.558 4.467 1.116 6.7 0 0.558 0 1.117 0.559 1.675 1.117 3.35 1.675 6.141 2.791 9.491 0.558 2.233 1.675 4.467 2.234 6.7 0.558 2.233 2.792 4.467 3.349 7.258v0c1.675 3.35 3.35 6.7 5.584 10.05 0.558 1.117 1.675 2.233 2.233 3.35 1.117 1.675 1.675 3.35 2.791 4.466 0.558 1.117 1.675 2.233 2.234 2.792 0.558 1.117 1.117 2.233 2.233 3.35 1.117 1.117 2.233 2.792 3.35 3.908 1.675 2.792 3.908 5.025 6.141 6.7 1.117 1.117 2.233 1.675 3.35 2.791 0.558 0.558 1.117 0.558 1.117 1.117 0.558 0.558 1.117 1.117 2.233 1.675 4.467 2.233 7.816 5.583 11.725 8.933 1.675 1.675 3.35 3.35 5.583 4.466 2.233 1.675 3.908 3.35 6.7 3.908 0 0 0.558 0 0.558 0.559 1.117 1.117 2.792 1.675 3.908 2.233 2.233 1.117 5.025 2.233 7.258 3.35 0.558 0.558 1.675 0.558 2.233 1.117 1.675 0.558 3.35 1.117 5.025 1.674 1.675 0.558 2.792 1.117 4.467 1.117h0.558c1.117 0.558 1.675 0.558 2.792 0 0.558 0 1.117 0 1.116 0.558 0 0.558 0.558 0.558 1.117 0.559 0.558 0 1.117 0 2.233 0 0.558-0.558 0.558-1.117 1.117-2.234 0.558 0.558 1.117 0.558 1.116 0.559 0.558 1.117 1.675 1.117 2.792 1.116h0.558c1.117 0 1.675 0 2.233-0.558 0-0.558 1.117-0.558 1.675-0.558 1.675 0.558 3.35 0.558 5.025 1.116 1.117 0.558 2.792 0.558 3.35-0.558 0.558-0.558 1.117-1.117 2.233-0.558 1.117 0.558 1.675 0.558 2.792 0 0.558 0 1.117 0 1.117 0 1.675 0.558 2.792 0.558 4.466 1.116 2.233 0.558 2.233 0.558 3.908-1.116 0.558-0.558 1.675-0.558 2.233 0 0.558 1.117 0.558 1.675 0.559 2.791 0.558 0 0.558 0 1.116-0.558 0-1.117 0.558-1.117 1.675-1.675 0.558 0.558 0.558 0.558 1.117 0.558 1.117 1.117 1.675 1.117 2.233-0.558 0-0.558 0-1.117 0.559-1.116 0.558 0 1.117 0.558 1.116 0.558 0.558 1.117 1.675 1.675 2.233 2.791 1.117 1.117 2.792 1.117 3.35 0 0.558-0.558 1.117-0.558 1.675-0.558 0-0.558 0-1.117 0-1.675 1.675 1.117 1.117 1.117 0.559 1.117zM89.417 34.559c1.675 0.558 2.792 0.558 3.349-0.558-1.117 0.558-2.233-0.558-3.349 0.558z" fill="#ffffff" fill-rule="nonzero" stroke="none" stroke-width="1" stroke-linecap="butt" stroke-linejoin="miter" stroke-miterlimit="10" stroke-dasharray="" stroke-dashoffset="0" font-family="none" font-weight="none" font-size="none" text-anchor="none" style="mix-blend-mode: normal" data-fill-palette-color="tertiary"></path></g><g transform="matrix(1,0,0,1,64,150.803024894373)"><svg viewBox="0 0 192 58.393950211254" height="58.393950211254" width="192"><g><svg viewBox="0 0 192 58.393950211254" height="58.393950211254" width="192"><g><svg viewBox="0 0 192 58.393950211254" height="58.393950211254" width="192"><g id="textblocktransform"><svg viewBox="0 0 192 58.393950211254" height="58.393950211254" width="192" id="textblock"><g><svg viewBox="0 0 192 33.84528832630098" height="33.84528832630098" width="192"><g transform="matrix(1,0,0,1,0,0)"><svg width="192" viewBox="2.299999952316284 -37.099998474121094 213.92999267578125 37.599998474121094" height="33.84528832630098" data-palette-color="url(#452ea64f-21f6-432e-b1cb-8c2c4751e5e1)"><g class="undefined-text-0" data-fill-palette-color="primary" id="text-0"></g></svg></g></svg></g><g transform="matrix(1,0,0,1,0,41.83534861322081)"><svg viewBox="0 0 112.72319999999999 16.55860159803319" height="16.55860159803319" width="112.72319999999999"><g transform="matrix(1,0,0,1,0,0)"><svg width="112.72319999999999" viewBox="4.300000190734863 -26.450000762939453 244.02999877929688 35.849998474121094" height="16.55860159803319" data-palette-color="url(#4496e3be-0b91-4556-a0b8-2050328da107)"></svg></g></svg></g></svg></g></svg></g></svg></g></svg></g></svg></g><defs><linearGradient x1="0" x2="1" y1="0.5" y2="0.5" id="172fb271-41fc-4184-ad99-35663f24caa8"><stop stop-color="#ffa62e" offset="0"></stop><stop stop-color="#f71b3d" offset="1"></stop></linearGradient><linearGradient x1="0" x2="1" y1="0.578" y2="0.595" id="9d1af9a8-72ef-469c-855f-96ba5a622be0"><stop stop-color="#6ee2f5" offset="0"></stop><stop stop-color="#6454f0" offset="1"></stop></linearGradient></defs><mask id="fa43e9c0-c52e-4f0b-b573-7e42f99765b9"><g id="SvgjsG2989"><svg viewBox="0 0 320 360" height="360" width="320"><g><svg></svg></g><g><svg viewBox="0 0 320 360" height="360" width="320"><g></g><g transform="matrix(1,0,0,1,64,150.803024894373)"><svg viewBox="0 0 192 58.393950211254" height="58.393950211254" width="192"><g><svg viewBox="0 0 192 58.393950211254" height="58.393950211254" width="192"><g><svg viewBox="0 0 192 58.393950211254" height="58.393950211254" width="192"><g id="SvgjsG2988"><svg viewBox="0 0 192 58.393950211254" height="58.393950211254" width="192" id="SvgjsSvg2987"><g><svg viewBox="0 0 192 33.84528832630098" height="33.84528832630098" width="192"><g transform="matrix(1,0,0,1,0,0)"><svg width="192" viewBox="2.299999952316284 -37.099998474121094 213.92999267578125 37.599998474121094" height="33.84528832630098" data-palette-color="url(#452ea64f-21f6-432e-b1cb-8c2c4751e5e1)"><g class="undefined-text-0" data-fill-palette-color="primary" id="SvgjsG2986"><path d="M6.65-11.6L6.65-11.6Q6.65-9.15 7.83-7.13 9-5.1 10.98-3.9 12.95-2.7 15.4-2.7L15.4-2.7Q17.9-2.7 19.85-3.73 21.8-4.75 23.2-6.85L23.2-6.85Q23.4-7.05 23.53-7.08 23.65-7.1 23.9-7L23.9-7 26-5.95Q26.45-5.7 26.1-5.25L26.1-5.25Q24.75-3.25 23.13-1.98 21.5-0.7 19.5-0.1 17.5 0.5 15 0.5L15 0.5Q11.3 0.5 8.45-1.2 5.6-2.9 3.95-5.95 2.3-9 2.3-13L2.3-13Q2.3-17.35 3.98-20.48 5.65-23.6 8.53-25.3 11.4-27 14.95-27L14.95-27Q18.6-27 21.3-25.4 24-23.8 25.5-20.75 27-17.7 27-13.4L27-13.4Q27-13.05 26.93-12.7 26.85-12.35 26.25-12.35L26.25-12.35 7.1-12.35Q6.9-12.35 6.78-12.13 6.65-11.9 6.65-11.6L6.65-11.6ZM6.75-15.1L21.95-15.1Q22.5-15.1 22.65-15.23 22.8-15.35 22.8-15.8L22.8-15.8Q22.8-17.95 21.88-19.83 20.95-21.7 19.23-22.85 17.5-24 15.05-24L15.05-24Q12.35-24 10.5-22.73 8.65-21.45 7.7-19.4 6.75-17.35 6.75-15.1L6.75-15.1ZM37.15-36.45L37.15-0.85Q37.15-0.35 36.95-0.18 36.75 0 36.25 0L36.25 0 33.65 0Q32.9 0 32.9-0.7L32.9-0.7 32.95-36.4Q32.95-37.1 33.55-37.1L33.55-37.1 36.55-37.1Q37.15-37.1 37.15-36.45L37.15-36.45ZM47.65-11.6L47.65-11.6Q47.65-9.15 48.82-7.13 50-5.1 51.97-3.9 53.95-2.7 56.4-2.7L56.4-2.7Q58.9-2.7 60.85-3.73 62.8-4.75 64.2-6.85L64.2-6.85Q64.4-7.05 64.52-7.08 64.65-7.1 64.9-7L64.9-7 67-5.95Q67.45-5.7 67.09-5.25L67.09-5.25Q65.75-3.25 64.12-1.98 62.5-0.7 60.5-0.1 58.5 0.5 56 0.5L56 0.5Q52.3 0.5 49.45-1.2 46.6-2.9 44.95-5.95 43.3-9 43.3-13L43.3-13Q43.3-17.35 44.97-20.48 46.65-23.6 49.52-25.3 52.4-27 55.95-27L55.95-27Q59.6-27 62.3-25.4 65-23.8 66.5-20.75 68-17.7 68-13.4L68-13.4Q68-13.05 67.92-12.7 67.84-12.35 67.25-12.35L67.25-12.35 48.1-12.35Q47.9-12.35 47.77-12.13 47.65-11.9 47.65-11.6L47.65-11.6ZM47.75-15.1L62.95-15.1Q63.5-15.1 63.65-15.23 63.8-15.35 63.8-15.8L63.8-15.8Q63.8-17.95 62.87-19.83 61.95-21.7 60.22-22.85 58.5-24 56.05-24L56.05-24Q53.35-24 51.5-22.73 49.65-21.45 48.7-19.4 47.75-17.35 47.75-15.1L47.75-15.1ZM74.59 0L74.59 0Q73.89 0 73.89-0.65L73.89-0.65 73.89-25.85Q73.89-26.5 74.44-26.5L74.44-26.5 77.44-26.5Q77.94-26.5 77.94-25.95L77.94-25.95 77.94-23.05Q77.94-22.8 78.07-22.75 78.19-22.7 78.44-22.9L78.44-22.9Q80.04-24.2 81.42-25.13 82.79-26.05 84.22-26.53 85.64-27 87.29-27L87.29-27Q90.24-27 92.02-25.65 93.79-24.3 94.39-22.6L94.39-22.6Q94.49-22.4 94.69-22.45 94.89-22.5 95.09-22.7L95.09-22.7Q96.69-24.05 98.12-25 99.54-25.95 101.02-26.48 102.49-27 104.14-27L104.14-27Q107.79-27 109.79-24.93 111.79-22.85 111.79-19.35L111.79-19.35 111.79-0.8Q111.79 0 111.04 0L111.04 0 108.24 0Q107.89 0 107.74-0.18 107.59-0.35 107.59-0.65L107.59-0.65 107.59-18.5Q107.59-20.95 106.42-22.33 105.24-23.7 102.74-23.7L102.74-23.7Q101.29-23.7 99.97-23.15 98.64-22.6 97.57-21.8 96.49-21 95.64-20.3L95.64-20.3Q95.24-19.95 95.09-19.63 94.94-19.3 94.94-18.8L94.94-18.8 94.94-0.8Q94.94 0 94.19 0L94.19 0 91.39 0Q91.09 0 90.92-0.18 90.74-0.35 90.74-0.65L90.74-0.65 90.74-18.5Q90.74-20.95 89.59-22.33 88.44-23.7 85.94-23.7L85.94-23.7Q83.84-23.7 82.09-22.7 80.34-21.7 78.09-19.65L78.09-19.65 78.09-0.75Q78.09 0 77.34 0L77.34 0 74.59 0ZM121.99-11.6L121.99-11.6Q121.99-9.15 123.17-7.13 124.34-5.1 126.31-3.9 128.29-2.7 130.74-2.7L130.74-2.7Q133.24-2.7 135.19-3.73 137.14-4.75 138.54-6.85L138.54-6.85Q138.74-7.05 138.87-7.08 138.99-7.1 139.24-7L139.24-7 141.34-5.95Q141.79-5.7 141.44-5.25L141.44-5.25Q140.09-3.25 138.47-1.98 136.84-0.7 134.84-0.1 132.84 0.5 130.34 0.5L130.34 0.5Q126.64 0.5 123.79-1.2 120.94-2.9 119.29-5.95 117.64-9 117.64-13L117.64-13Q117.64-17.35 119.31-20.48 120.99-23.6 123.87-25.3 126.74-27 130.29-27L130.29-27Q133.94-27 136.64-25.4 139.34-23.8 140.84-20.75 142.34-17.7 142.34-13.4L142.34-13.4Q142.34-13.05 142.27-12.7 142.19-12.35 141.59-12.35L141.59-12.35 122.44-12.35Q122.24-12.35 122.12-12.13 121.99-11.9 121.99-11.6L121.99-11.6ZM122.09-15.1L137.29-15.1Q137.84-15.1 137.99-15.23 138.14-15.35 138.14-15.8L138.14-15.8Q138.14-17.95 137.22-19.83 136.29-21.7 134.56-22.85 132.84-24 130.39-24L130.39-24Q127.69-24 125.84-22.73 123.99-21.45 123.04-19.4 122.09-17.35 122.09-15.1L122.09-15.1ZM148.94 0L148.94 0Q148.24 0 148.24-0.65L148.24-0.65 148.24-25.85Q148.24-26.5 148.79-26.5L148.79-26.5 151.79-26.5Q152.34-26.5 152.34-25.95L152.34-25.95 152.34-23.05Q152.34-22.8 152.44-22.75 152.54-22.7 152.79-22.9L152.79-22.9Q154.44-24.2 155.86-25.13 157.29-26.05 158.79-26.53 160.29-27 161.99-27L161.99-27Q165.89-27 167.96-24.9 170.04-22.8 170.04-19.45L170.04-19.45 170.04-0.8Q170.04 0 169.29 0L169.29 0 166.49 0Q166.14 0 165.99-0.18 165.84-0.35 165.84-0.65L165.84-0.65 165.84-18.5Q165.84-20.95 164.59-22.33 163.34-23.7 160.64-23.7L160.64-23.7Q159.19-23.7 157.91-23.23 156.64-22.75 155.34-21.88 154.04-21 152.44-19.65L152.44-19.65 152.44-0.75Q152.44 0 151.69 0L151.69 0 148.94 0ZM190.79-23.35L184.44-23.35Q184.04-23.35 184.04-22.95L184.04-22.95 184.04-7.1Q184.04-4.75 184.84-3.95 185.64-3.15 187.24-3.15L187.24-3.15 190.69-3.15Q190.94-3.15 191.09-3.03 191.24-2.9 191.24-2.6L191.24-2.6 191.19-0.9Q191.19-0.4 190.59-0.25L190.59-0.25Q190.09-0.15 189.16-0.1 188.24-0.05 187.36-0.03 186.49 0 185.89 0L185.89 0Q182.74 0 181.29-1.48 179.84-2.95 179.84-6.15L179.84-6.15 179.84-22.85Q179.84-23.35 179.34-23.35L179.34-23.35 175.34-23.35Q174.79-23.35 174.79-23.9L174.79-23.9 174.79-26Q174.79-26.5 175.29-26.5L175.29-26.5 179.54-26.5Q179.89-26.5 179.89-26.9L179.89-26.9 180.44-34.85Q180.49-35.5 180.99-35.5L180.99-35.5 183.49-35.5Q184.09-35.5 184.09-34.8L184.09-34.8 184.09-26.9Q184.09-26.5 184.49-26.5L184.49-26.5 190.79-26.5Q191.34-26.5 191.34-26.05L191.34-26.05 191.34-23.9Q191.34-23.35 190.79-23.35L190.79-23.35ZM212.68-20.65L212.68-20.65Q211.68-22.15 209.88-23.1 208.08-24.05 205.58-24.05L205.58-24.05Q202.88-24.05 201.11-22.9 199.33-21.75 199.33-19.8L199.33-19.8Q199.33-18.75 200.13-17.82 200.93-16.9 203.38-16.1L203.38-16.1 209.73-14.2Q213.18-13.25 214.71-11.45 216.23-9.65 216.23-7.3L216.23-7.3Q216.23-4.95 214.83-3.2 213.43-1.45 210.98-0.48 208.53 0.5 205.43 0.5L205.43 0.5Q201.48 0.5 198.53-1.07 195.58-2.65 194.33-5L194.33-5Q194.18-5.25 194.18-5.45 194.18-5.65 194.43-5.8L194.43-5.8 196.38-6.9Q196.63-7.05 196.83-7.03 197.03-7 197.13-6.85L197.13-6.85Q197.98-5.55 199.11-4.6 200.23-3.65 201.81-3.1 203.38-2.55 205.48-2.55L205.48-2.55Q207.38-2.6 208.93-3.1 210.48-3.6 211.38-4.58 212.28-5.55 212.28-6.85L212.28-6.85Q212.28-8.2 211.18-9.18 210.08-10.15 207.38-10.9L207.38-10.9 202.23-12.35Q198.48-13.35 196.96-15.05 195.43-16.75 195.38-19.05L195.38-19.05Q195.38-21.45 196.68-23.23 197.98-25 200.31-26 202.63-27 205.63-27L205.63-27Q208.98-27 211.61-25.73 214.23-24.45 215.58-22.35L215.58-22.35Q215.73-22.15 215.73-21.98 215.73-21.8 215.53-21.65L215.53-21.65 213.43-20.5Q213.23-20.4 213.06-20.43 212.88-20.45 212.68-20.65L212.68-20.65Z" fill="white"></path></g></svg></g></svg></g><g transform="matrix(1,0,0,1,0,41.83534861322081)"><svg viewBox="0 0 112.72319999999999 16.55860159803319" height="16.55860159803319" width="112.72319999999999"><g transform="matrix(1,0,0,1,0,0)"><svg width="112.72319999999999" viewBox="4.300000190734863 -26.450000762939453 244.02999877929688 35.849998474121094" height="16.55860159803319" data-palette-color="url(#4496e3be-0b91-4556-a0b8-2050328da107)"></svg></g></svg></g></svg></g></svg></g></svg></g></svg></g></svg></g><defs><linearGradient x1="0" x2="1" y1="0.5" y2="0.5" id="SvgjsLinearGradient2984"><stop stop-color="#ffa62e" offset="0"></stop><stop stop-color="#f71b3d" offset="1"></stop></linearGradient><linearGradient x1="0" x2="1" y1="0.578" y2="0.595" id="SvgjsLinearGradient2983"><stop stop-color="#6ee2f5" offset="0"></stop><stop stop-color="#6454f0" offset="1"></stop></linearGradient></defs></svg></g></mask><mask id="e2f39d05-b3ce-4957-8964-bf5f220233ba"><g id="SvgjsG3003"><svg viewBox="0 0 320 360" height="360" width="320"><g><svg></svg></g><g><svg viewBox="0 0 320 360" height="360" width="320"><g></g><g transform="matrix(1,0,0,1,64,150.803024894373)"><svg viewBox="0 0 192 58.393950211254" height="58.393950211254" width="192"><g><svg viewBox="0 0 192 58.393950211254" height="58.393950211254" width="192"><g><svg viewBox="0 0 192 58.393950211254" height="58.393950211254" width="192"><g id="SvgjsG3002"><svg viewBox="0 0 192 58.393950211254" height="58.393950211254" width="192" id="SvgjsSvg3001"><g><svg viewBox="0 0 192 33.84528832630098" height="33.84528832630098" width="192"><g transform="matrix(1,0,0,1,0,0)"><svg width="192" viewBox="2.299999952316284 -37.099998474121094 213.92999267578125 37.599998474121094" height="33.84528832630098" data-palette-color="url(#452ea64f-21f6-432e-b1cb-8c2c4751e5e1)"><g class="undefined-text-0" data-fill-palette-color="primary" id="SvgjsG3000"></g></svg></g></svg></g><g transform="matrix(1,0,0,1,0,41.83534861322081)"><svg viewBox="0 0 112.72319999999999 16.55860159803319" height="16.55860159803319" width="112.72319999999999"><g transform="matrix(1,0,0,1,0,0)"><svg width="112.72319999999999" viewBox="4.300000190734863 -26.450000762939453 244.02999877929688 35.849998474121094" height="16.55860159803319" data-palette-color="url(#4496e3be-0b91-4556-a0b8-2050328da107)"><path d="M7.55-22.7L7.55-4.65Q8-4.3 8.68-3.9 9.35-3.5 10.25-3.15 11.15-2.8 12.2-2.58 13.25-2.35 14.4-2.35L14.4-2.35Q16.8-2.35 18.43-3.18 20.05-4 21.05-5.43 22.05-6.85 22.5-8.78 22.95-10.7 22.95-12.85L22.95-12.85Q22.95-17.95 20.4-20.68 17.85-23.4 13.65-23.4L13.65-23.4Q11.25-23.4 9.78-23.18 8.3-22.95 7.55-22.7L7.55-22.7ZM7.55-1.5L7.55 9.25 4.3 9.25 4.3-24.95Q5.75-25.45 8-25.9 10.25-26.35 13.7-26.35L13.7-26.35Q16.55-26.35 18.88-25.43 21.2-24.5 22.88-22.75 24.55-21 25.48-18.5 26.4-16 26.4-12.85L26.4-12.85Q26.4-9.9 25.63-7.43 24.85-4.95 23.35-3.18 21.85-1.4 19.68-0.4 17.5 0.6 14.7 0.6L14.7 0.6Q12.15 0.6 10.28-0.13 8.4-0.85 7.55-1.5L7.55-1.5ZM42.25-26.35L42.25-26.35Q43.85-26.35 45.27-26.1 46.7-25.85 47.25-25.6L47.25-25.6 46.6-22.8Q46.2-23 44.97-23.23 43.75-23.45 41.75-23.45L41.75-23.45Q39.65-23.45 38.37-23.15 37.1-22.85 36.7-22.65L36.7-22.65 36.7 0 33.45 0 33.45-24.65Q34.7-25.2 36.9-25.78 39.1-26.35 42.25-26.35ZM74.19-12.9L74.19-12.9Q74.19-9.85 73.32-7.35 72.44-4.85 70.87-3.1 69.3-1.35 67.14-0.38 65 0.6 62.39 0.6L62.39 0.6Q59.8 0.6 57.64-0.38 55.49-1.35 53.92-3.1 52.34-4.85 51.47-7.35 50.59-9.85 50.59-12.9L50.59-12.9Q50.59-15.95 51.47-18.45 52.34-20.95 53.92-22.73 55.49-24.5 57.64-25.48 59.8-26.45 62.39-26.45L62.39-26.45Q65-26.45 67.14-25.48 69.3-24.5 70.87-22.73 72.44-20.95 73.32-18.45 74.19-15.95 74.19-12.9ZM70.75-12.9L70.75-12.9Q70.75-17.75 68.5-20.63 66.25-23.5 62.39-23.5L62.39-23.5Q58.55-23.5 56.3-20.63 54.05-17.75 54.05-12.9L54.05-12.9Q54.05-8.05 56.3-5.2 58.55-2.35 62.39-2.35L62.39-2.35Q66.25-2.35 68.5-5.2 70.75-8.05 70.75-12.9ZM98.09-1.3L98.09-3Q97.79-2.75 97.19-2.43 96.59-2.1 95.72-1.75 94.84-1.4 93.72-1.18 92.59-0.95 91.19-0.95L91.19-0.95Q88.94-0.95 86.84-1.65 84.74-2.35 83.17-3.85 81.59-5.35 80.64-7.73 79.69-10.1 79.69-13.5L79.69-13.5Q79.69-16.25 80.54-18.6 81.39-20.95 82.97-22.68 84.54-24.4 86.82-25.38 89.09-26.35 91.94-26.35L91.94-26.35Q95.54-26.35 97.72-25.88 99.89-25.4 101.29-24.95L101.29-24.95 101.29-1.35Q101.29 4.45 98.29 6.93 95.29 9.4 89.24 9.4L89.24 9.4Q86.74 9.4 84.72 9.03 82.69 8.65 81.24 8.15L81.24 8.15 81.89 5.2Q83.09 5.75 85.17 6.15 87.24 6.55 89.34 6.55L89.34 6.55Q93.94 6.55 96.02 4.78 98.09 3 98.09-1.3L98.09-1.3ZM98.04-6.05L98.04-22.7Q97.19-22.95 95.84-23.18 94.49-23.4 91.99-23.4L91.99-23.4Q89.89-23.4 88.27-22.68 86.64-21.95 85.49-20.63 84.34-19.3 83.74-17.48 83.14-15.65 83.14-13.45L83.14-13.45Q83.14-10.9 83.84-9.08 84.54-7.25 85.67-6.1 86.79-4.95 88.24-4.42 89.69-3.9 91.19-3.9L91.19-3.9Q93.39-3.9 95.22-4.55 97.04-5.2 98.04-6.05L98.04-6.05ZM126.74-1.3L126.74-3Q126.44-2.75 125.84-2.43 125.24-2.1 124.37-1.75 123.49-1.4 122.37-1.18 121.24-0.95 119.84-0.95L119.84-0.95Q117.59-0.95 115.49-1.65 113.39-2.35 111.81-3.85 110.24-5.35 109.29-7.73 108.34-10.1 108.34-13.5L108.34-13.5Q108.34-16.25 109.19-18.6 110.04-20.95 111.62-22.68 113.19-24.4 115.47-25.38 117.74-26.35 120.59-26.35L120.59-26.35Q124.19-26.35 126.37-25.88 128.54-25.4 129.94-24.95L129.94-24.95 129.94-1.35Q129.94 4.45 126.94 6.93 123.94 9.4 117.89 9.4L117.89 9.4Q115.39 9.4 113.37 9.03 111.34 8.65 109.89 8.15L109.89 8.15 110.54 5.2Q111.74 5.75 113.81 6.15 115.89 6.55 117.99 6.55L117.99 6.55Q122.59 6.55 124.67 4.78 126.74 3 126.74-1.3L126.74-1.3ZM126.69-6.05L126.69-22.7Q125.84-22.95 124.49-23.18 123.14-23.4 120.64-23.4L120.64-23.4Q118.54-23.4 116.92-22.68 115.29-21.95 114.14-20.63 112.99-19.3 112.39-17.48 111.79-15.65 111.79-13.45L111.79-13.45Q111.79-10.9 112.49-9.08 113.19-7.25 114.31-6.1 115.44-4.95 116.89-4.42 118.34-3.9 119.84-3.9L119.84-3.9Q122.04-3.9 123.87-4.55 125.69-5.2 126.69-6.05L126.69-6.05ZM146.69-2.35L146.69-2.35Q148.59-2.35 150.01-2.48 151.44-2.6 152.44-2.8L152.44-2.8 152.44-11.9Q151.89-12.15 150.69-12.43 149.49-12.7 147.39-12.7L147.39-12.7Q146.19-12.7 144.89-12.53 143.59-12.35 142.49-11.78 141.39-11.2 140.69-10.2 139.99-9.2 139.99-7.55L139.99-7.55Q139.99-6.1 140.46-5.1 140.94-4.1 141.81-3.5 142.69-2.9 143.91-2.63 145.14-2.35 146.69-2.35ZM146.39-26.45L146.39-26.45Q148.94-26.45 150.71-25.73 152.49-25 153.59-23.73 154.69-22.45 155.19-20.7 155.69-18.95 155.69-16.9L155.69-16.9 155.69-0.6Q155.19-0.45 154.24-0.28 153.29-0.1 152.04 0.1 150.79 0.3 149.26 0.43 147.74 0.55 146.14 0.55L146.14 0.55Q144.09 0.55 142.36 0.1 140.64-0.35 139.36-1.33 138.09-2.3 137.36-3.83 136.64-5.35 136.64-7.55L136.64-7.55Q136.64-9.65 137.44-11.15 138.24-12.65 139.69-13.63 141.14-14.6 143.14-15.05 145.14-15.5 147.49-15.5L147.49-15.5Q148.19-15.5 148.96-15.43 149.74-15.35 150.46-15.23 151.19-15.1 151.71-14.98 152.24-14.85 152.44-14.75L152.44-14.75 152.44-16.35Q152.44-17.7 152.24-18.98 152.04-20.25 151.36-21.28 150.69-22.3 149.46-22.93 148.24-23.55 146.24-23.55L146.24-23.55Q143.39-23.55 141.99-23.15 140.59-22.75 139.94-22.5L139.94-22.5 139.49-25.35Q140.34-25.75 142.11-26.1 143.89-26.45 146.39-26.45ZM163.99 0L163.99-24.95Q165.44-25.35 167.76-25.85 170.09-26.35 173.78-26.35L173.78-26.35Q178.69-26.35 180.88-23.5L180.88-23.5Q181.13-23.7 181.86-24.18 182.59-24.65 183.69-25.15 184.78-25.65 186.26-26 187.74-26.35 189.53-26.35L189.53-26.35Q192.49-26.35 194.31-25.48 196.13-24.6 197.13-23.03 198.13-21.45 198.49-19.25 198.84-17.05 198.84-14.45L198.84-14.45 198.84 0 195.59 0 195.59-13.4Q195.59-15.95 195.36-17.82 195.13-19.7 194.46-20.93 193.78-22.15 192.53-22.78 191.28-23.4 189.28-23.4L189.28-23.4Q187.78-23.4 186.56-23.13 185.34-22.85 184.44-22.45 183.53-22.05 182.96-21.65 182.38-21.25 182.13-21.05L182.13-21.05Q182.59-19.75 182.81-18.13 183.03-16.5 183.03-14.7L183.03-14.7 183.03 0 179.78 0 179.78-13.4Q179.78-15.95 179.56-17.82 179.34-19.7 178.63-20.93 177.94-22.15 176.66-22.78 175.38-23.4 173.28-23.4L173.28-23.4Q170.94-23.4 169.31-23.15 167.69-22.9 167.24-22.7L167.24-22.7 167.24 0 163.99 0ZM205.58-12.95L205.58-12.95Q205.58-16.35 206.56-18.88 207.53-21.4 209.11-23.1 210.68-24.8 212.71-25.63 214.73-26.45 216.88-26.45L216.88-26.45Q221.63-26.45 224.46-23.35 227.28-20.25 227.28-13.8L227.28-13.8Q227.28-13.4 227.26-13 227.23-12.6 227.18-12.25L227.18-12.25 209.03-12.25Q209.18-7.5 211.38-4.95 213.58-2.4 218.38-2.4L218.38-2.4Q221.03-2.4 222.58-2.9 224.13-3.4 224.83-3.75L224.83-3.75 225.43-0.95Q224.73-0.55 222.81 0 220.88 0.55 218.28 0.55L218.28 0.55Q214.88 0.55 212.48-0.45 210.08-1.45 208.53-3.25 206.98-5.05 206.28-7.53 205.58-10 205.58-12.95ZM209.13-15L223.93-15Q223.83-19.05 222.03-21.3 220.23-23.55 216.93-23.55L216.93-23.55Q215.18-23.55 213.81-22.85 212.43-22.15 211.41-20.98 210.38-19.8 209.81-18.25 209.23-16.7 209.13-15L209.13-15ZM243.33-26.35L243.33-26.35Q244.93-26.35 246.36-26.1 247.78-25.85 248.33-25.6L248.33-25.6 247.68-22.8Q247.28-23 246.06-23.23 244.83-23.45 242.83-23.45L242.83-23.45Q240.73-23.45 239.46-23.15 238.18-22.85 237.78-22.65L237.78-22.65 237.78 0 234.53 0 234.53-24.65Q235.78-25.2 237.98-25.78 240.18-26.35 243.33-26.35Z" opacity="1" transform="matrix(1,0,0,1,0,0)" fill="white" class="undefined-text-1" id="SvgjsPath2999"></path></svg></g></svg></g></svg></g></svg></g></svg></g></svg></g></svg></g><defs><linearGradient x1="0" x2="1" y1="0.5" y2="0.5" id="SvgjsLinearGradient2998"><stop stop-color="#ffa62e" offset="0"></stop><stop stop-color="#f71b3d" offset="1"></stop></linearGradient><linearGradient x1="0" x2="1" y1="0.578" y2="0.595" id="SvgjsLinearGradient2997"><stop stop-color="#6ee2f5" offset="0"></stop><stop stop-color="#6454f0" offset="1"></stop></linearGradient></defs><mask id="SvgjsMask2996"><g id="SvgjsG2995"><svg viewBox="0 0 320 360" height="360" width="320"><g><svg></svg></g><g><svg viewBox="0 0 320 360" height="360" width="320"><g></g><g transform="matrix(1,0,0,1,64,150.803024894373)"><svg viewBox="0 0 192 58.393950211254" height="58.393950211254" width="192"><g><svg viewBox="0 0 192 58.393950211254" height="58.393950211254" width="192"><g><svg viewBox="0 0 192 58.393950211254" height="58.393950211254" width="192"><g id="SvgjsG2994"><svg viewBox="0 0 192 58.393950211254" height="58.393950211254" width="192" id="SvgjsSvg2993"><g><svg viewBox="0 0 192 33.84528832630098" height="33.84528832630098" width="192"><g transform="matrix(1,0,0,1,0,0)"><svg width="192" viewBox="2.299999952316284 -37.099998474121094 213.92999267578125 37.599998474121094" height="33.84528832630098" data-palette-color="url(#452ea64f-21f6-432e-b1cb-8c2c4751e5e1)"><g class="undefined-text-0" data-fill-palette-color="primary" id="SvgjsG2992"></g></svg></g></svg></g><g transform="matrix(1,0,0,1,0,41.83534861322081)"><svg viewBox="0 0 112.72319999999999 16.55860159803319" height="16.55860159803319" width="112.72319999999999"><g transform="matrix(1,0,0,1,0,0)"><svg width="112.72319999999999" viewBox="4.300000190734863 -26.450000762939453 244.02999877929688 35.849998474121094" height="16.55860159803319" data-palette-color="url(#4496e3be-0b91-4556-a0b8-2050328da107)"></svg></g></svg></g></svg></g></svg></g></svg></g></svg></g></svg></g><defs><linearGradient x1="0" x2="1" y1="0.5" y2="0.5" id="SvgjsLinearGradient2991"><stop stop-color="#ffa62e" offset="0"></stop><stop stop-color="#f71b3d" offset="1"></stop></linearGradient><linearGradient x1="0" x2="1" y1="0.578" y2="0.595" id="SvgjsLinearGradient2990"><stop stop-color="#6ee2f5" offset="0"></stop><stop stop-color="#6454f0" offset="1"></stop></linearGradient></defs></svg></g></mask></svg></g></mask><mask id="eb86821c-7e0f-4712-8e14-4144674e3292"><g id="SvgjsG3031"><svg viewBox="0 0 320 360" height="360" width="320"><g><svg></svg></g><g><svg viewBox="0 0 320 360" height="360" width="320"><g><path xmlns="http://www.w3.org/2000/svg" d="M85.508 32.884c0-1.117 0.558-2.233 1.675-2.233 1.117 0 2.233 0.558 2.234 2.233 0.558 0 1.675 0 2.233-0.558 2.233 0 4.467-0.558 6.141 0 1.675 0.558 2.792 0.558 4.467 1.117 1.675 0.558 2.792 0 3.908-0.559 2.233-0.558 3.908-1.675 6.141-2.233 1.117-0.558 1.675-0.558 2.792-0.558 1.117-0.558 2.233-0.558 3.908-1.117 2.792-0.558 5.583-1.117 7.817-2.233 2.233-1.117 4.467-1.117 6.699-1.675 1.117 0 1.675-0.558 2.792-1.117 0.558 0 0.558-0.558 1.116-1.116 1.117-0.558 1.675-1.117 2.792-0.559 0.558 0.558 1.675 0.558 2.233 0h0.559c3.35 0 6.7-0.558 10.608 0 0.558 0 1.117 0 1.116 0 1.675-1.117 3.908-1.117 6.142-1.116 0.558 0 1.675 0 2.233 0h0.558c2.233 0 4.467 0 6.142 0.558 1.675 0 2.792 0.558 4.466 1.117 1.675 0 2.792 0 4.467 0.558 1.117 0 2.233 0 3.35 0 0.558 0 1.117 0 1.116 0 2.233 0.558 4.467 0.558 6.7 0.558 1.675 0.558 3.35 1.117 5.583 1.117 0.558 0 1.117 0 1.675 0 0.558 0 1.117 0.558 1.675 0.558l0.558 0.559c2.233 0 3.908 1.117 6.142 1.116 0.558 0 1.675 0 2.233 0.559 1.675 1.117 3.908 1.675 6.141 1.675 1.117 0 1.675 0.558 2.234 1.116 1.675 0.558 2.792 1.117 4.466 1.675 1.117 0.558 2.233 0 3.35 0.558 1.675 0.558 3.908 1.117 5.583 2.792 1.117 1.117 2.233 1.117 3.908 2.233 0.558 0 1.117 0.558 1.675 1.117 1.675 1.117 3.35 2.233 5.025 2.791 0.558 0 1.117 0.558 1.675 0.559 1.675 1.117 3.35 2.792 5.583 3.908 1.117 0.558 1.675 1.117 2.792 1.675h0.558c1.675 1.675 3.908 2.792 5.583 4.466 1.675 1.675 2.792 2.792 5.025 3.909 0 0 0 0 0 0.558 0.558 1.117 1.117 1.675 2.233 2.233 1.117 0.558 1.675 1.117 2.234 1.675 1.675 1.117 3.35 2.233 4.466 3.35 0.558 0.558 1.117 1.117 2.233 2.233 0.558 0.558 1.117 1.117 1.675 1.117 2.233 0.558 3.35 2.233 5.025 3.908 1.117 1.117 2.792 2.792 3.908 3.908 0.558 0.558 1.117 1.675 1.675 2.792 1.117 3.35 2.792 6.7 4.467 9.491 0 0 0 0.558 0.558 1.117v0.558c1.117 1.117 1.675 2.792 2.792 3.908 0.558 0.558 0.558 1.117 1.116 1.675 1.117 1.675 1.675 3.908 2.792 5.583 1.675 2.792 2.792 5.583 3.908 8.375v0.558c0.558 1.117 1.117 2.233 1.675 3.908 0 1.117 1.117 2.233 1.675 3.909 0.558 2.792 2.233 5.583 2.791 8.933 0 0.558 0.558 1.117 0.559 2.233 0.558 1.675 1.117 3.35 1.675 5.025 0 0.558 0.558 1.117 1.116 1.675 1.117 1.117 1.117 2.233 1.117 3.35-0.558 2.233 0 4.467 0.558 6.699 0 0.558 0 1.117 0 2.234 0.558 2.233 1.117 5.025 1.117 7.258 0 0.558 0 1.675 0 2.233 0 1.675 0.558 3.35 1.675 5.025 0 0.558 0.558 0.558 0.558 0.558 0.558 0.558 1.117 1.675 1.675 2.233 0.558 0.558 0.558 0.558 1.117 1.117 1.117 1.117 1.675 2.233 1.675 3.908 0 0.558-0.558 1.675-0.559 2.233 0 0.558 0 1.675 0.559 2.234 0.558 0.558 0.558 1.117 0.558 1.675 0 0.558-0.558 1.117-1.117 1.116v0c-0.558 1.675-2.792 2.233-3.35 3.908-0.558 2.233-1.117 4.467-1.674 6.7-0.558 1.675-0.558 2.792-0.559 4.467 0 1.675-0.558 2.792-0.558 4.466-0.558 2.233-1.117 4.467-1.675 6.7 0 1.117-0.558 2.233-0.558 3.35 0.558 0.558 1.117 1.117 1.675 1.116 1.117 1.117 2.233 2.233 3.349 3.35 0.558 0.558 0.558 1.117 0 1.117-0.558 0.558-1.117 0.558-1.674 0.558-0.558-0.558-1.675-1.117-2.234-1.116-0.558-0.558-1.675-1.117-2.791-0.559 0 1.117-0.558 2.233-0.559 2.792-0.558 1.117-1.117 2.792-1.116 3.908-0.558 2.233-1.675 3.908-2.233 6.142-1.117 2.792-2.233 5.025-3.35 7.258-0.558 1.117-1.117 2.233-1.675 3.35v0c0 1.675-1.675 3.35-2.234 5.024-1.117 2.233-2.233 4.467-3.349 7.258-0.558 1.117-1.117 2.233-1.675 2.792-1.117 2.792-2.233 5.025-3.909 7.258-1.117 1.675-2.233 2.792-3.349 3.35-1.117 1.117-2.233 2.233-3.35 3.35-0.558 0.558-1.117 1.117-1.675 1.675-0.558 0.558-0.558 0.558-1.117 1.116-1.117 1.675-2.792 2.792-3.908 4.467-1.117 1.117-1.675 2.233-3.35 3.35-1.117 1.117-2.233 2.792-3.908 3.35-0.558 0.558-1.117 1.675-1.675 2.233-0.558 0.558-1.117 1.675-1.675 2.233 0 1.117 0.558 2.233 0.558 2.792 0 1.675-1.675 2.233-2.791 1.116-1.675-1.117-1.675-1.117-3.35 0-1.675 1.117-3.35 2.792-5.583 3.35-0.558 0-0.558 0.558-1.117 0.559-1.117 0.558-1.675 1.675-2.792 2.233-1.117 1.117-2.792 1.675-3.908 2.791-0.558 0.558-1.117 0.558-1.675 1.117-1.675 1.117-3.35 1.675-5.024 3.35-0.558 0.558-1.117 0.558-1.675 1.117 0 0.558 0 0.558 0 1.116 0 1.117-1.117 2.233-2.792 1.675-1.675-0.558-2.792 0-4.466 0-1.675 0.558-3.35 1.675-5.025 2.233-0.558 0-1.117 0.558-1.675 1.117-1.675 1.117-3.35 1.675-5.025 2.233-1.117 0-2.233 1.117-3.35 1.117-0.558 0-1.117 0.558-1.675 0.558h-0.558c-2.233 1.675-4.467 2.792-6.7 4.467-0.558 0-0.558 0.558-1.117 1.116-0.558 1.117-1.117 1.675-2.233 1.675-2.792 0-3.908 2.233-3.35 4.467 0 0.558 0.558 1.117 0.559 1.675 0.558 1.117 0 2.233-0.559 2.791-0.558 0.558-2.233 0.558-2.791-0.558-1.117-1.117-1.675-2.233-2.234-3.908-0.558-1.117-1.675-2.233-2.791-2.792-1.117-0.558-2.233-0.558-3.35 0-0.558 0-0.558 0.558-1.117 0.558-1.117 1.117-2.792 1.675-4.466 1.117-0.558 0-1.675 0-1.675 0.558-0.558 0.558-0.558 1.675 0 2.234 1.117 1.117 0.558 2.233 0.558 3.908 0 2.233-1.675 3.35-3.908 2.233-0.558-0.558-1.117-0.558-1.675-1.117-0.558 0-0.558-0.558-0.558-1.116-0.558-0.558-0.558-1.675-1.117-2.792-1.117 0.558-2.233 0.558-3.35 1.117-0.558 0-1.117 0.558-1.675 0.558-1.675 0-2.233 0-2.791-1.675-0.558-1.675-1.675-1.675-2.792-2.233-2.233-0.558-5.025-0.558-7.258-1.675h-0.558c-2.233-1.675-4.467-1.675-7.258-1.675-1.675 0-3.35 0.558-5.025 0.558-1.675 0-2.792 0.558-3.908 1.675-0.558 0.558-1.117 1.117-1.675 1.117-0.558-0.558-0.558-1.117-1.117-1.675v-0.558c0-0.558-0.558-1.117-1.116-0.559-1.117 0.558-2.233-0.558-3.35-1.116-0.558-0.558-1.675-1.675-1.675-2.792-0.558-0.558-1.117-1.117-1.675-1.116-1.117 0-2.792-0.558-3.908-0.559-0.558 0-1.117 0-1.117-0.558-0.558-0.558-1.117-0.558-2.233-0.558-0.558 0-0.558-0.558-1.117-0.559 1.117 1.117 1.675 2.233 2.233 3.35 0 0.558 0.558 0.558 0.559 1.117 0.558 1.117 0 1.675-1.675 1.675-1.117 0-1.117 0-1.675 0.558 0 1.117 0 1.675 0 2.792 0 0.558 0 1.117-1.117 1.675 0 0-0.558 0-0.558 0.558-0.558 0.558-0.558 1.117 0 1.675 1.675 1.117 2.792 1.675 4.466 2.233 1.675 0 1.675 1.117 2.234 2.233 0.558 1.117 0 1.675-0.559 2.792-1.117 1.117-2.233 2.233-3.35 3.35-1.675 0.558-2.792 2.233-4.466 2.233-1.117 0-2.233-0.558-2.792-1.675-0.558-2.792-0.558-5.025 0.559-7.816 0-0.558 0.558-1.117 0-1.675-5.025 0-5.025-1.117-5.025-1.675 0-1.117 0.558-1.675 0.558-2.792 0.558-1.117 0-1.675-1.675-2.233-0.558 0-1.117 0-1.675 0-0.558 0-0.558-0.558-1.675-0.558 1.117-0.558 1.675-0.558 2.792-1.117-0.558-2.233-1.117-3.908-2.792-5.025-0.558-0.558-1.117-1.117-1.116-2.233 0-1.675-1.117-2.792-1.675-3.908-1.117-1.675-3.35-2.233-5.025-2.233-1.675-0.558-2.792-0.558-4.467-1.117-1.675-0.558-3.35-2.233-5.024-2.792-0.558-0.558-1.117-1.117-2.234-1.674-2.233-1.117-3.908-2.792-5.583-4.467-1.117-0.558-1.675-1.675-2.791-2.233-1.117-1.117-1.675-2.233-2.792-2.792-1.117-1.117-2.233-2.233-3.908-3.35-1.675-1.117-2.792-2.792-4.467-4.466-1.117-1.675-2.792-2.792-4.466-3.908-0.558 0-1.117 0-1.675 0-0.558 0-1.117 0.558-1.675 0.558-1.675 0.558-2.792 1.675-4.467 2.233 0.558-0.558 0.558-0.558 0-1.675-0.558-0.558-1.117-1.117-1.674-1.116-1.117 0-2.233 0-3.35 0-2.233 0-4.467 0.558-6.7 0.558-1.675 0-3.908 0.558-5.583 1.117 0.558 1.117 0.558 1.675 1.116 2.791-1.117 0.558-2.233 0.558-3.35 0.558-0.558 0-1.675 0.558-2.233 1.117-0.558 0-0.558 0.558-1.116 0-1.117-0.558-2.233 0-3.35 0.558h-0.559c0 0 0-0.558 0.559-0.558 0.558-0.558 1.117-1.117 1.675-1.675 0.558-0.558 1.117-0.558 2.233-1.117-0.558-0.558-0.558-1.117-0.558-1.116-0.558-0.558-1.117-0.558-1.675 0-0.558 0.558-1.117 1.117-1.675 1.675-0.558 0.558-1.117 0.558-1.675 0-0.558-0.558-0.558-1.117 0-1.675 0-0.558 0.558-1.117 1.116-1.675 0.558-0.558 0.558-1.117 1.117-1.675-1.117-1.117-1.675-2.233-2.792-2.792-1.675-1.117-3.35-2.792-4.466-4.466-1.117-2.233-2.792-3.908-5.025-5.025-0.558-0.558-1.117-1.117-1.675-1.675-0.558-0.558-0.558-0.558-1.116-1.117-1.675 0.558-2.792 1.675-4.467 2.234-0.558 0-0.558 0.558-1.117 1.116-0.558 1.117-1.675 1.117-2.791 1.117-0.558 0-1.117-0.558-0.558-1.117 0.558-1.117 1.117-2.233 2.791-1.675 0 0 0.558 0 0.558-0.558 1.117-1.117 2.233-2.792 3.909-3.908-0.558-1.675-1.675-2.792-2.234-3.908-0.558-0.558-0.558-1.117-0.558-2.234 0-0.558 0-0.558-0.558-1.116 0 0-0.558 0-1.117 0.558-0.558 0.558-1.675 1.117-2.791 0 0-0.558 0-1.117 0.558-1.675l0.558-0.558c1.675-0.558 1.675-2.233 1.675-3.908v-0.559c-0.558-1.117-0.558-1.675 0.558-2.791 1.675-1.117 3.35-3.35 3.909-5.025 0.558-1.117 1.675-1.675 2.791-2.792 1.117-1.117 2.233-2.233 2.792-3.908h0.558c2.233 0.558 2.792-1.117 3.908-2.791 0-0.558 0-1.117 0.559-1.117 1.117-1.117 1.117-2.233 0.558-3.908 0-0.558-0.558-1.675-0.558-2.233 0-0.558 0-0.558-0.559-1.117-1.675-1.117-1.675-2.233 0-3.35 1.117-0.558 1.117-1.675 1.675-2.233 0.558-1.117 0.558-2.233 0.559-3.908-0.558-1.675-0.558-3.908-1.117-5.583-0.558-2.233-1.117-5.025-1.675-7.259 0-0.558 0-0.558 0-1.116 0-1.675 0-2.792-0.558-4.467-0.558-0.558-0.558-1.675-0.559-2.233-0.558-1.675-1.117-2.792-2.791-3.35-1.675-1.117-3.908-1.675-5.583-2.791-0.558-0.558-1.117 0-1.675 0.558-0.558 1.117-1.675 2.233-2.234 3.35-0.558 0.558-1.117 1.675-1.675 2.791-1.117 1.117-3.35 2.233-5.024 0.559-0.558-1.117-1.117-1.675 0-2.792 1.117-1.675 2.233-3.35 3.908-4.466 0.558-0.558 1.117-1.675 1.675-2.234 0.558-1.117 0.558-2.233 0.558-3.35-0.558-2.233-1.117-4.467-1.117-7.258 0-2.792 0-5.025 0.559-7.816 0.558-1.117 0.558-2.792 1.116-3.908 0-0.558 0.558-1.675 1.117-2.233 1.117-1.117 2.233-2.233 2.792-3.909 0.558-1.675 1.675-3.35 1.675-5.024 0-0.558 0.558-1.117 0.558-1.675 0-0.558 0.558-1.675 0.558-2.234-0.558-1.675 0-2.792 0.558-3.908 0.558-1.117 1.117-2.792 1.675-3.908 1.117-2.233 1.117-5.025 3.35-7.258 0.558-1.117 1.117-2.233 1.675-3.35 0.558-2.233 1.675-3.908 2.792-5.583 0.558-0.558 0.558-0.558 0.558-1.117 0.558-1.675 1.675-3.35 2.792-5.025 1.117-1.675 1.117-3.35 1.675-5.024 0-0.558 0-1.117 0.558-1.675 1.675-1.675 1.117-3.908 0.558-6.142-1.117-2.792-1.675-5.583-1.116-8.374 0-0.558 0-1.117 0.558-1.117 0.558-1.117 0.558-1.675 1.117-2.792v-0.558c1.117-1.117 2.233-2.792 3.908-3.35 2.233-1.117 4.467-1.675 7.258-2.233 2.233 0 4.467-1.117 6.141-3.35 0-0.558 0.558-0.558 1.117-1.117l0.558-0.558c0.558-1.117 1.117-1.675 1.675-2.233 1.117-1.117 2.233-2.792 3.35-3.908 1.117-1.117 2.233-2.792 3.908-4.467l0.559-0.558c1.117-1.117 2.233-2.233 3.349-2.792 1.117-1.117 2.233-2.233 3.35-3.35 1.117-1.117 1.675-2.233 2.792-3.35 1.117-0.558 2.233-1.675 3.35-2.791 1.117-1.117 2.233-2.233 2.791-2.792 1.117-1.117 2.792-2.233 3.909-2.791 1.117-0.558 2.233-1.117 2.791-2.792 0.558-1.675 1.117-2.792 1.675-4.466 0-1.117 0.558-2.233 1.117-3.35 0.558 0 1.117 0 2.233-0.558-0.558-0.558-1.117-0.558-1.117-1.117 0-0.558 0.558-1.117 0.559-1.117 0-0.558 0.558-1.117 0.558-1.675 0 0 0.558 0 0.558-0.558 0 0 0.558 0 0.559-0.558-1.117 0.558-1.675 0-2.234-0.559 0.558 0.558 1.117 0.558 2.234 1.117 0 0 0.558 0 0.558-0.558 0-0.558 0-1.117 0-1.117 0 0-0.558 0-1.117 0-0.558 0-1.117 0.558-1.675 0.558zM182.097 295.292c0-0.558-0.558-0.558-0.559-1.117-0.558-1.117 0-1.675 0.559-2.233 0.558-0.558 1.117-0.558 2.233-0.558 1.117 0.558 1.675 1.117 1.675 2.233 0 0.558 0 1.675 0 2.233 0.558 2.233 0.558 2.233 2.791 2.233 1.117 0 2.233 0 3.35 0 2.233-0.558 4.467-1.675 6.7-2.233 2.233-0.558 4.467-1.117 6.7-1.675 0.558 0 1.117 0 2.233 0 2.233 0.558 3.908 0 5.583-1.117 0.558-0.558 1.675-0.558 2.233-1.116 1.117-0.558 2.233-0.558 3.35-1.117 2.792-1.675 5.583-2.792 7.817-4.466 1.675-1.117 3.35-2.233 5.024-3.35 1.675-1.117 3.35-2.233 5.025-3.35 1.117-0.558 2.792-1.675 3.908-2.792 2.233-1.675 3.908-3.35 6.142-4.466 1.117-0.558 1.675-1.117 2.233-1.675 1.117-0.558 1.675-1.675 2.792-2.233 0.558-0.558 1.117-1.117 2.233-1.675 0.558-0.558 0.558-0.558 0.558-1.117 1.675-1.117 3.35-3.35 4.467-5.025 1.117-1.117 2.233-2.233 3.35-3.908 1.675-1.675 2.792-3.908 4.466-6.141 1.117-1.117 2.233-2.792 2.792-3.909 1.117-2.233 2.233-4.467 3.908-6.141v-0.558c1.117-2.233 2.233-4.467 3.35-6.7 1.675-2.792 2.792-6.141 4.466-8.933 0.558-1.117 1.117-2.233 1.117-3.35 1.117-2.233 1.675-4.467 2.233-6.7 0-0.558 0-0.558 0.559-1.116 1.675-3.35 2.792-6.7 3.349-10.608 0.558-2.233 1.117-4.467 1.675-6.7 1.117-3.35 1.117-6.141 1.675-9.491 0.558-2.233 0.558-5.025 0.559-7.258 0.558-3.35 0.558-7.258 0-10.608 0-2.792-0.558-6.141-0.559-8.933 0-2.792-0.558-5.025-1.116-7.817-0.558-2.792-1.117-5.025-1.675-7.816-1.117-2.233-1.675-4.467-2.234-7.258-0.558-2.233-1.675-3.908-1.674-6.142 0-1.675-0.558-3.35-2.234-3.908-1.675-0.558-2.792-1.117-4.466-2.233-3.35-2.233-5.025-5.025-4.467-8.375 0-1.675 0.558-3.908 1.117-5.583 0.558-1.675 1.117-3.35 0-4.467-0.558-1.675-1.675-2.792-2.233-3.908-1.117-1.675-1.675-2.792-2.792-3.908-1.117-2.233-2.233-4.467-3.908-6.141-2.233-2.792-3.908-5.583-6.7-7.817l-0.558-0.558c-1.675-2.233-3.35-4.467-5.583-6.142-1.117-1.117-2.233-2.233-3.35-2.791-0.558-0.558-1.117-1.117-2.233-1.675-1.675-1.117-3.35-1.675-4.467-2.792-1.675-1.675-3.908-2.792-5.583-3.908 0 0-0.558 0-0.558-0.558-2.233-1.117-3.908-1.675-6.142-2.792-2.233-1.117-4.467-1.675-6.7-1.675-0.558 0-0.558 0-1.116 0-0.558-0.558-1.675-0.558-2.233-0.558-0.558 0-0.558 0-1.117 0-1.117-0.558-2.792 0-3.908 0-2.233 0.558-4.467 0.558-6.7-0.558-2.792-1.117-5.025-2.233-7.258-3.35-1.675-1.117-2.792-2.233-4.467-3.35-3.35-2.792-6.7-6.141-10.608-8.933 0.558-2.792-0.558-3.35-2.791-3.35-1.117 0-2.233 0.558-3.35 1.117-0.558 0.558-0.558 0.558-1.117 1.116-1.675 1.117-2.792 2.792-4.466 3.909-2.792 1.675-3.908 1.117-6.142 0-0.558-0.558-1.117-1.117-1.675-1.675-1.117-1.117-2.233-2.792-2.791-3.909-1.117-2.233-3.35-2.233-5.583-2.233-1.117 0-2.792 0.558-3.908 0.558-2.233 0-4.467 1.117-5.584 2.792-1.117 1.675-2.233 3.35-3.908 5.025-0.558 0.558-1.675 1.117-2.233 2.233-1.117 1.117-2.233 1.117-3.35 0-0.558-0.558-1.117-0.558-1.675-1.117-0.558 0.558-1.117 1.117-1.117 1.675-0.558 1.117-1.117 2.233-1.674 3.909-0.558 1.675-1.675 3.35-2.792 4.466-0.558 0.558-0.558 0.558-1.117 1.117-0.558 1.117-2.233 1.675-3.35 1.675-1.117 1.117-2.233 2.792-2.791 3.908-0.558 1.117-1.117 2.233-1.675 3.908-0.558 0.558-0.558 1.675-1.117 2.233-0.558 1.117-0.558 1.675-0.558 2.792 0.558 1.675-0.558 2.233-2.233 2.791-1.117 0-1.117 0-1.675 1.117 0 1.675 0.558 2.792 1.116 4.467 0.558 0.558 1.117 1.675 1.117 2.233 0 1.117 0.558 1.675 1.675 2.233 0.558 0.558 1.117 1.117 1.675 1.117 0.558 0 0.558 0.558 1.117 0.558 0.558 0.558 1.117 0 1.116-0.558 0.558-1.675 1.117-3.35 1.117-5.025 0.558-2.233 0.558-3.908 1.116-6.142 0.558-1.117 1.117-1.675 1.675-2.233 0 0 0.558 0 1.117 0v0.559c-0.558 2.792-1.675 6.141-2.233 8.933-0.558 1.117-0.558 2.233-1.117 3.349 0 0.558-0.558 1.117-1.116 1.117-1.117 0.558-2.233 1.117-3.35 1.117-0.558 0-1.117 0-1.675 0-1.117-0.558-2.233-1.675-3.35-2.234-0.558-0.558-1.117-1.117-1.675-1.674-0.558-1.117-1.117-2.233-1.675-3.35-0.558-1.117-1.117-1.675-2.233-2.234-0.558-0.558-1.117-0.558-1.675-1.116-1.117-1.117-2.233-1.675-3.908-1.675-0.558 0-1.675 0-2.234 0-0.558 0-1.675 0.558-2.233 1.116-1.117 0.558-1.675 0.558-2.791 0-2.792-1.117-5.583-0.558-8.375 0.559-1.117 0.558-2.233 1.117-3.35 1.116-2.792 0-5.025 0-7.816 0-2.792 0-5.025-0.558-7.817-1.116-1.117 0-2.233 0-3.35 0-2.233 0.558-2.792 2.233-2.233 4.466 0.558 2.233 1.117 5.025 1.117 7.258 0 1.675 0 3.35 0 5.025 0 1.117 0 1.675 0 2.792 0 1.675-0.558 3.35-0.559 5.025-0.558 3.35-2.233 6.141-4.466 8.374-1.675 1.675-3.908 3.35-6.142 3.908-1.117 0.558-2.233 1.117-3.908 1.675-2.792 1.117-5.025 3.35-6.7 6.142-0.558 1.117-1.117 2.233-1.674 3.35-1.117 1.675-1.675 2.792-2.792 4.466-0.558 1.117-1.675 2.233-2.233 3.35-0.558 1.117-1.675 1.675-1.675 2.792-1.117 2.233-1.675 4.467-2.792 6.699-0.558 1.117-0.558 2.792-1.116 3.909-1.117 2.233-1.117 4.467-1.117 7.258 0 0.558 0 1.117 0 2.233 0 2.792-0.558 6.141-0.558 8.933 0 2.792 0 5.583 0.558 8.375 0 1.117 0 2.792 0 3.908 0 2.233 0.558 5.025 0.558 7.258 0 2.233 0 5.025 1.117 7.258v0.558c0.558 2.233 0.558 4.467 1.116 6.7 0 0.558 0 1.117 0.559 1.675 1.117 3.35 1.675 6.141 2.791 9.491 0.558 2.233 1.675 4.467 2.234 6.7 0.558 2.233 2.792 4.467 3.349 7.258v0c1.675 3.35 3.35 6.7 5.584 10.05 0.558 1.117 1.675 2.233 2.233 3.35 1.117 1.675 1.675 3.35 2.791 4.466 0.558 1.117 1.675 2.233 2.234 2.792 0.558 1.117 1.117 2.233 2.233 3.35 1.117 1.117 2.233 2.792 3.35 3.908 1.675 2.792 3.908 5.025 6.141 6.7 1.117 1.117 2.233 1.675 3.35 2.791 0.558 0.558 1.117 0.558 1.117 1.117 0.558 0.558 1.117 1.117 2.233 1.675 4.467 2.233 7.816 5.583 11.725 8.933 1.675 1.675 3.35 3.35 5.583 4.466 2.233 1.675 3.908 3.35 6.7 3.908 0 0 0.558 0 0.558 0.559 1.117 1.117 2.792 1.675 3.908 2.233 2.233 1.117 5.025 2.233 7.258 3.35 0.558 0.558 1.675 0.558 2.233 1.117 1.675 0.558 3.35 1.117 5.025 1.674 1.675 0.558 2.792 1.117 4.467 1.117h0.558c1.117 0.558 1.675 0.558 2.792 0 0.558 0 1.117 0 1.116 0.558 0 0.558 0.558 0.558 1.117 0.559 0.558 0 1.117 0 2.233 0 0.558-0.558 0.558-1.117 1.117-2.234 0.558 0.558 1.117 0.558 1.116 0.559 0.558 1.117 1.675 1.117 2.792 1.116h0.558c1.117 0 1.675 0 2.233-0.558 0-0.558 1.117-0.558 1.675-0.558 1.675 0.558 3.35 0.558 5.025 1.116 1.117 0.558 2.792 0.558 3.35-0.558 0.558-0.558 1.117-1.117 2.233-0.558 1.117 0.558 1.675 0.558 2.792 0 0.558 0 1.117 0 1.117 0 1.675 0.558 2.792 0.558 4.466 1.116 2.233 0.558 2.233 0.558 3.908-1.116 0.558-0.558 1.675-0.558 2.233 0 0.558 1.117 0.558 1.675 0.559 2.791 0.558 0 0.558 0 1.116-0.558 0-1.117 0.558-1.117 1.675-1.675 0.558 0.558 0.558 0.558 1.117 0.558 1.117 1.117 1.675 1.117 2.233-0.558 0-0.558 0-1.117 0.559-1.116 0.558 0 1.117 0.558 1.116 0.558 0.558 1.117 1.675 1.675 2.233 2.791 1.117 1.117 2.792 1.117 3.35 0 0.558-0.558 1.117-0.558 1.675-0.558 0-0.558 0-1.117 0-1.675 1.675 1.117 1.117 1.117 0.559 1.117zM89.417 34.559c1.675 0.558 2.792 0.558 3.349-0.558-1.117 0.558-2.233-0.558-3.349 0.558z" fill="white" fill-rule="nonzero" stroke="none" stroke-width="1" stroke-linecap="butt" stroke-linejoin="miter" stroke-miterlimit="10" stroke-dasharray="" stroke-dashoffset="0" font-family="none" font-weight="none" font-size="none" text-anchor="none" style="mix-blend-mode: normal"></path></g><g transform="matrix(1,0,0,1,64,150.803024894373)"><svg viewBox="0 0 192 58.393950211254" height="58.393950211254" width="192"><g><svg viewBox="0 0 192 58.393950211254" height="58.393950211254" width="192"><g><svg viewBox="0 0 192 58.393950211254" height="58.393950211254" width="192"><g id="SvgjsG3030"><svg viewBox="0 0 192 58.393950211254" height="58.393950211254" width="192" id="SvgjsSvg3029"><g><svg viewBox="0 0 192 33.84528832630098" height="33.84528832630098" width="192"><g transform="matrix(1,0,0,1,0,0)"><svg width="192" viewBox="2.299999952316284 -37.099998474121094 213.92999267578125 37.599998474121094" height="33.84528832630098" data-palette-color="url(#452ea64f-21f6-432e-b1cb-8c2c4751e5e1)"><g class="undefined-text-0" data-fill-palette-color="primary" id="SvgjsG3028"></g></svg></g></svg></g><g transform="matrix(1,0,0,1,0,41.83534861322081)"><svg viewBox="0 0 112.72319999999999 16.55860159803319" height="16.55860159803319" width="112.72319999999999"><g transform="matrix(1,0,0,1,0,0)"><svg width="112.72319999999999" viewBox="4.300000190734863 -26.450000762939453 244.02999877929688 35.849998474121094" height="16.55860159803319" data-palette-color="url(#4496e3be-0b91-4556-a0b8-2050328da107)"></svg></g></svg></g></svg></g></svg></g></svg></g></svg></g></svg></g><defs><linearGradient x1="0" x2="1" y1="0.5" y2="0.5" id="SvgjsLinearGradient3027"><stop stop-color="#ffa62e" offset="0"></stop><stop stop-color="#f71b3d" offset="1"></stop></linearGradient><linearGradient x1="0" x2="1" y1="0.578" y2="0.595" id="SvgjsLinearGradient3026"><stop stop-color="#6ee2f5" offset="0"></stop><stop stop-color="#6454f0" offset="1"></stop></linearGradient></defs><mask id="SvgjsMask3025"><g id="SvgjsG3024"><svg viewBox="0 0 320 360" height="360" width="320"><g><svg></svg></g><g><svg viewBox="0 0 320 360" height="360" width="320"><g></g><g transform="matrix(1,0,0,1,64,150.803024894373)"><svg viewBox="0 0 192 58.393950211254" height="58.393950211254" width="192"><g><svg viewBox="0 0 192 58.393950211254" height="58.393950211254" width="192"><g><svg viewBox="0 0 192 58.393950211254" height="58.393950211254" width="192"><g id="SvgjsG3023"><svg viewBox="0 0 192 58.393950211254" height="58.393950211254" width="192" id="SvgjsSvg3022"><g><svg viewBox="0 0 192 33.84528832630098" height="33.84528832630098" width="192"><g transform="matrix(1,0,0,1,0,0)"><svg width="192" viewBox="2.299999952316284 -37.099998474121094 213.92999267578125 37.599998474121094" height="33.84528832630098" data-palette-color="url(#452ea64f-21f6-432e-b1cb-8c2c4751e5e1)"><g class="undefined-text-0" data-fill-palette-color="primary" id="SvgjsG3021"></g></svg></g></svg></g><g transform="matrix(1,0,0,1,0,41.83534861322081)"><svg viewBox="0 0 112.72319999999999 16.55860159803319" height="16.55860159803319" width="112.72319999999999"><g transform="matrix(1,0,0,1,0,0)"><svg width="112.72319999999999" viewBox="4.300000190734863 -26.450000762939453 244.02999877929688 35.849998474121094" height="16.55860159803319" data-palette-color="url(#4496e3be-0b91-4556-a0b8-2050328da107)"></svg></g></svg></g></svg></g></svg></g></svg></g></svg></g></svg></g><defs><linearGradient x1="0" x2="1" y1="0.5" y2="0.5" id="SvgjsLinearGradient3020"><stop stop-color="#ffa62e" offset="0"></stop><stop stop-color="#f71b3d" offset="1"></stop></linearGradient><linearGradient x1="0" x2="1" y1="0.578" y2="0.595" id="SvgjsLinearGradient3019"><stop stop-color="#6ee2f5" offset="0"></stop><stop stop-color="#6454f0" offset="1"></stop></linearGradient></defs></svg></g></mask><mask id="SvgjsMask3018"><g id="SvgjsG3017"><svg viewBox="0 0 320 360" height="360" width="320"><g><svg></svg></g><g><svg viewBox="0 0 320 360" height="360" width="320"><g></g><g transform="matrix(1,0,0,1,64,150.803024894373)"><svg viewBox="0 0 192 58.393950211254" height="58.393950211254" width="192"><g><svg viewBox="0 0 192 58.393950211254" height="58.393950211254" width="192"><g><svg viewBox="0 0 192 58.393950211254" height="58.393950211254" width="192"><g id="SvgjsG3016"><svg viewBox="0 0 192 58.393950211254" height="58.393950211254" width="192" id="SvgjsSvg3015"><g><svg viewBox="0 0 192 33.84528832630098" height="33.84528832630098" width="192"><g transform="matrix(1,0,0,1,0,0)"><svg width="192" viewBox="2.299999952316284 -37.099998474121094 213.92999267578125 37.599998474121094" height="33.84528832630098" data-palette-color="url(#452ea64f-21f6-432e-b1cb-8c2c4751e5e1)"><g class="undefined-text-0" data-fill-palette-color="primary" id="SvgjsG3014"></g></svg></g></svg></g><g transform="matrix(1,0,0,1,0,41.83534861322081)"><svg viewBox="0 0 112.72319999999999 16.55860159803319" height="16.55860159803319" width="112.72319999999999"><g transform="matrix(1,0,0,1,0,0)"><svg width="112.72319999999999" viewBox="4.300000190734863 -26.450000762939453 244.02999877929688 35.849998474121094" height="16.55860159803319" data-palette-color="url(#4496e3be-0b91-4556-a0b8-2050328da107)"></svg></g></svg></g></svg></g></svg></g></svg></g></svg></g></svg></g><defs><linearGradient x1="0" x2="1" y1="0.5" y2="0.5" id="SvgjsLinearGradient3012"><stop stop-color="#ffa62e" offset="0"></stop><stop stop-color="#f71b3d" offset="1"></stop></linearGradient><linearGradient x1="0" x2="1" y1="0.578" y2="0.595" id="SvgjsLinearGradient3011"><stop stop-color="#6ee2f5" offset="0"></stop><stop stop-color="#6454f0" offset="1"></stop></linearGradient></defs><mask id="SvgjsMask3010"><g id="SvgjsG3009"><svg viewBox="0 0 320 360" height="360" width="320"><g><svg></svg></g><g><svg viewBox="0 0 320 360" height="360" width="320"><g></g><g transform="matrix(1,0,0,1,64,150.803024894373)"><svg viewBox="0 0 192 58.393950211254" height="58.393950211254" width="192"><g><svg viewBox="0 0 192 58.393950211254" height="58.393950211254" width="192"><g><svg viewBox="0 0 192 58.393950211254" height="58.393950211254" width="192"><g id="SvgjsG3008"><svg viewBox="0 0 192 58.393950211254" height="58.393950211254" width="192" id="SvgjsSvg3007"><g><svg viewBox="0 0 192 33.84528832630098" height="33.84528832630098" width="192"><g transform="matrix(1,0,0,1,0,0)"><svg width="192" viewBox="2.299999952316284 -37.099998474121094 213.92999267578125 37.599998474121094" height="33.84528832630098" data-palette-color="url(#452ea64f-21f6-432e-b1cb-8c2c4751e5e1)"><g class="undefined-text-0" data-fill-palette-color="primary" id="SvgjsG3006"></g></svg></g></svg></g><g transform="matrix(1,0,0,1,0,41.83534861322081)"><svg viewBox="0 0 112.72319999999999 16.55860159803319" height="16.55860159803319" width="112.72319999999999"><g transform="matrix(1,0,0,1,0,0)"><svg width="112.72319999999999" viewBox="4.300000190734863 -26.450000762939453 244.02999877929688 35.849998474121094" height="16.55860159803319" data-palette-color="url(#4496e3be-0b91-4556-a0b8-2050328da107)"></svg></g></svg></g></svg></g></svg></g></svg></g></svg></g></svg></g><defs><linearGradient x1="0" x2="1" y1="0.5" y2="0.5" id="SvgjsLinearGradient3005"><stop stop-color="#ffa62e" offset="0"></stop><stop stop-color="#f71b3d" offset="1"></stop></linearGradient><linearGradient x1="0" x2="1" y1="0.578" y2="0.595" id="SvgjsLinearGradient3004"><stop stop-color="#6ee2f5" offset="0"></stop><stop stop-color="#6454f0" offset="1"></stop></linearGradient></defs></svg></g></mask></svg></g></mask></svg></g></mask></svg><rect width="320" height="360" fill="none" stroke="none" visibility="hidden"></rect></g></svg></g></svg>